<svg enable-background="new 0 0 520 520" height="300" viewBox="0 0 520 520" width="300" xmlns="http://www.w3.org/2000/svg" version="1.1" xmlns:xlink="http://www.w3.org/1999/xlink" xmlns:svgjs="http://svgjs.dev/svgjs"><g transform="matrix(1,0,0,1,0,0)"><g id="_x31_64_x2C__Home_x2C__Living_x2C__Cabinet"><g><g><path d="m435 435v40h-350v-40h40 135 135z" fill="#f7f7f7d7" data-original-color="#57606fff" stroke="none"/><g fill="#b2dbd8"><path d="m394.12 164.5-9.12.5h-125v-120c37.28 0 71.03 15.11 95.46 39.54 20.99 20.99 35.11 48.87 38.66 79.96z" fill="#ebebeb76" data-original-color="#b2dbd8ff" stroke="none"/><path d="m260 165v90h-135v-75c0-5.24.3-10.42.88-15.5l9.12.5z" fill="#ebebeb76" data-original-color="#b2dbd8ff" stroke="none"/><path d="m260 255h135v90h-135z" fill="#ebebeb76" data-original-color="#b2dbd8ff" stroke="none"/><path d="m125 345h135v90h-135z" fill="#ebebeb76" data-original-color="#b2dbd8ff" stroke="none"/></g><path d="m260 345h135v90h-135z" fill="#e1e1e173" data-original-color="#d8f2f1ff" stroke="none"/><path d="m125 255h135v90h-135z" fill="#e1e1e173" data-original-color="#d8f2f1ff" stroke="none"/><path d="m260 45v120h-125l-9.12-.5c7.69-67.26 64.8-119.5 134.12-119.5z" fill="#e1e1e173" data-original-color="#d8f2f1ff" stroke="none"/><path d="m395 180v75h-135v-90h125l9.12-.5c.58 5.08.88 10.26.88 15.5z" fill="#e1e1e173" data-original-color="#d8f2f1ff" stroke="none"/><path d="m452.07 277.93c1.81 1.811 2.93 4.311 2.93 7.07s-1.12 5.26-2.93 7.07c-1.811 1.81-4.311 2.93-7.07 2.93-5.52 0-10-4.48-10-10 0-2.76 1.12-5.26 2.93-7.07 1.811-1.81 4.311-2.93 7.07-2.93s5.26 1.12 7.07 2.93z" fill="#ffffffff" data-original-color="#000000ff" stroke="none"/><path d="m432.07 77.93c1.81 1.81 2.93 4.31 2.93 7.07s-1.12 5.26-2.93 7.07-4.31 2.93-7.07 2.93c-5.52 0-10-4.48-10-10 0-2.76 1.12-5.26 2.93-7.07s4.31-2.93 7.07-2.93 5.26 1.12 7.07 2.93z" fill="#ffffffff" data-original-color="#000000ff" stroke="none"/><path d="m162.07 37.93c1.81 1.81 2.93 4.31 2.93 7.07s-1.12 5.26-2.93 7.07-4.31 2.93-7.07 2.93c-5.52 0-10-4.48-10-10 0-2.76 1.12-5.26 2.93-7.07s4.31-2.93 7.07-2.93 5.26 1.12 7.07 2.93z" fill="#ffffffff" data-original-color="#000000ff" stroke="none"/><path d="m92.07 287.93c1.81 1.81 2.93 4.31 2.93 7.07s-1.12 5.26-2.93 7.07-4.31 2.93-7.07 2.93c-5.52 0-10-4.48-10-10 0-2.76 1.12-5.26 2.93-7.07s4.31-2.93 7.07-2.93 5.26 1.12 7.07 2.93z" fill="#ffffffff" data-original-color="#000000ff" stroke="none"/><path d="m82.07 127.93c1.81 1.81 2.93 4.31 2.93 7.07s-1.12 5.26-2.93 7.07-4.31 2.93-7.07 2.93c-5.52 0-10-4.48-10-10 0-2.76 1.12-5.26 2.93-7.07s4.31-2.93 7.07-2.93 5.26 1.12 7.07 2.93z" fill="#ffffffff" data-original-color="#000000ff" stroke="none"/><path d="m395 445c-5.522 0-10-4.478-10-10v-255c0-4.794-.274-9.627-.815-14.366-3.178-27.829-15.89-54.118-35.796-74.023-23.609-23.609-54.999-36.611-88.389-36.611-63.586 0-116.974 47.563-124.185 110.636-.541 4.737-.815 9.57-.815 14.364v255c0 5.522-4.477 10-10 10s-10-4.478-10-10v-255c0-5.55.318-11.146.944-16.634 8.368-73.181 70.298-128.366 144.056-128.366 38.732 0 75.146 15.083 102.531 42.469 23.089 23.088 37.836 53.594 41.524 85.896.628 5.489.945 11.085.945 16.635v255c0 5.522-4.478 10-10 10z" fill="#ffffffff" data-original-color="#000000ff" stroke="none"/><path d="m435 485c-5.522 0-10-4.478-10-10v-30h-330v30c0 5.522-4.477 10-10 10s-10-4.478-10-10v-40c0-5.522 4.477-10 10-10h350c5.522 0 10 4.478 10 10v40c0 5.522-4.478 10-10 10z" fill="#ffffffff" data-original-color="#000000ff" stroke="none"/><path d="m475 485h-430c-5.523 0-10-4.478-10-10s4.477-10 10-10h430c5.522 0 10 4.478 10 10s-4.478 10-10 10z" fill="#ffffffff" data-original-color="#000000ff" stroke="none"/><path d="m260 445c-5.523 0-10-4.478-10-10v-390c0-5.523 4.477-10 10-10 5.522 0 10 4.477 10 10v390c0 5.522-4.478 10-10 10z" fill="#ffffffff" data-original-color="#000000ff" stroke="none"/><path d="m395 355h-270c-5.523 0-10-4.478-10-10s4.477-10 10-10h270c5.522 0 10 4.478 10 10s-4.478 10-10 10z" fill="#ffffffff" data-original-color="#000000ff" stroke="none"/><path d="m395 265h-270c-5.523 0-10-4.478-10-10 0-5.523 4.477-10 10-10h270c5.522 0 10 4.477 10 10 0 5.522-4.478 10-10 10z" fill="#ffffffff" data-original-color="#000000ff" stroke="none"/><path d="m385 175h-250c-5.523 0-10-4.477-10-10s4.477-10 10-10h250c5.522 0 10 4.477 10 10s-4.478 10-10 10z" fill="#ffffffff" data-original-color="#000000ff" stroke="none"/><path d="m295 225c-2.56 0-5.118-.977-7.071-2.929-3.905-3.905-3.905-10.237 0-14.143l20-20c3.906-3.904 10.236-3.904 14.143 0 3.905 3.905 3.905 10.237 0 14.143l-20 20c-1.954 1.952-4.512 2.929-7.072 2.929z" fill="#ffffffff" data-original-color="#000000ff" stroke="none"/><path d="m335 225c-2.56 0-5.118-.977-7.071-2.929-3.905-3.905-3.905-10.237 0-14.143l20-20c3.906-3.904 10.236-3.904 14.143 0 3.905 3.905 3.905 10.237 0 14.143l-20 20c-1.954 1.952-4.512 2.929-7.072 2.929z" fill="#ffffffff" data-original-color="#000000ff" stroke="none"/><path d="m165 315c-2.559 0-5.119-.977-7.071-2.929-3.905-3.905-3.905-10.237 0-14.143l20-20c3.905-3.904 10.237-3.904 14.143 0 3.905 3.905 3.905 10.237 0 14.143l-20 20c-1.953 1.952-4.513 2.929-7.072 2.929z" fill="#ffffffff" data-original-color="#000000ff" stroke="none"/><path d="m205 315c-2.559 0-5.119-.977-7.071-2.929-3.905-3.905-3.905-10.237 0-14.143l20-20c3.905-3.904 10.237-3.904 14.143 0 3.905 3.905 3.905 10.237 0 14.143l-20 20c-1.953 1.952-4.513 2.929-7.072 2.929z" fill="#ffffffff" data-original-color="#000000ff" stroke="none"/></g></g></g></g></svg>